<?xml version="1.0" encoding="utf-8"?>
<!-- Generator: Adobe Illustrator 17.1.0, SVG Export Plug-In . SVG Version: 6.00 Build 0)  -->
<!DOCTYPE svg PUBLIC "-//W3C//DTD SVG 1.1//EN" "http://www.w3.org/Graphics/SVG/1.1/DTD/svg11.dtd">
<svg version="1.1" id="Layer_1" height="50px" width="50px" xmlns="http://www.w3.org/2000/svg" xmlns:xlink="http://www.w3.org/1999/xlink" x="0px" y="0px"
	 viewBox="0 0 43 43" enable-background="new 0 0 50 50" xml:space="preserve">

	 <style>
		#hamb {fill:#c4c4c4;}

		svg:hover path {stroke:green;}
  	</style>
<path xlink:href="#hamb" id="hamb" hover="fill:green" d="M8.667,15h30c0.552,0,1-0.447,1-1s-0.448-1-1-1h-30c-0.552,0-1,0.447-1,1S8.114,15,8.667,15z"/>
<path xlink:href="#hamb" id="hamb" d="M8.667,37h30c0.552,0,1-0.447,1-1s-0.448-1-1-1h-30c-0.552,0-1,0.447-1,1S8.114,37,8.667,37z"/>
<path xlink:href="#hamb" id="hamb" d="M8.667,26h30c0.552,0,1-0.447,1-1s-0.448-1-1-1h-30c-0.552,0-1,0.447-1,1S8.114,26,8.667,26z"/>
</svg>