<?xml version="1.0" encoding="UTF-8" standalone="no"?> 
<svg id="Layer_1" height="45" width="45" data-name="Layer 1" xmlns="http://www.w3.org/2000/svg" viewBox="0 0 128 128">
<defs><style>.cls-1{fill:#ffffff;}.cls-2{fill:#ffffff;}</style></defs>
<title>a</title>
<circle class="cls-1" cx="108.50999" cy="17.51256" r="2.26382"/>
<circle class="cls-1" cx="99.55383" cy="17.51256" r="2.26383"/>
<circle class="cls-1" cx="90.59767" cy="17.51256" r="2.26383"/>
<path class="cls-1" d="M106.72613,1.52269H92.38154A16.08655,16.08655,0,0,0,76.3132,17.59114V31.77758A1.88177,1.88177,0,0,0,78.195,33.65939h2.28284v7.14417a1.88185,1.88185,0,0,0,3.1489,1.39133l9.3725-8.5355h13.72691a16.06835,16.06835,0,0,0,0-32.1367Zm0,28.37308H92.27077a1.88256,1.88256,0,0,0-1.26711.49046l-6.76224,6.15835v-4.767a1.88177,1.88177,0,0,0-1.88179-1.88181H80.0768V17.59114A12.31863,12.31863,0,0,1,92.38154,5.2863h14.34459a12.30474,12.30474,0,1,1,0,24.60947Z"/><path class="cls-1" d="M87.37247,68.81922H7.908a2.70115,2.70115,0,0,0-2.62051,3.35627l6.12736,24.5094H16.988v28.85886a.93356.93356,0,0,0,.93356.93356H77.3589a.93356.93356,0,0,0,.93356-.93356V96.68488H83.8656L89.993,72.17548A2.70114,2.70114,0,0,0,87.37247,68.81922Z"/><path class="cls-2" d="M53.394,37.82215l-3.30441,4.40861,3.098,21.43423H76.26891a127.80533,127.80533,0,0,0-1.1104-14.78416,5.877,5.877,0,0,0-3.164-4.262c-5.50253-2.743-17.57879-6.79664-17.57879-6.79664Z"/><path class="cls-2" d="M36.94761,23.11457a10.893,10.893,0,0,0,21.38527,0l1.66288-8.57121A11.47442,11.47442,0,0,0,48.62786,1.52269H46.65263a11.47442,11.47442,0,0,0-11.3679,13.02066Z"/>
<path class="cls-2" d="M45.19084,42.23076l-3.30441-4.40861H40.86479S28.78853,41.87576,23.286,44.61879a5.87705,5.87705,0,0,0-3.16406,4.262A127.80851,127.80851,0,0,0,19.01157,63.665H42.09284Z"/>
</svg>